<?xml version="1.0" encoding="UTF-8" standalone="no"?>
<!-- Created with Inkscape (http://www.inkscape.org/) -->

<svg
   xmlns:dc="http://purl.org/dc/elements/1.1/"
   xmlns:cc="http://creativecommons.org/ns#"
   xmlns:rdf="http://www.w3.org/1999/02/22-rdf-syntax-ns#"
   xmlns:svg="http://www.w3.org/2000/svg"
   xmlns="http://www.w3.org/2000/svg"
   xmlns:sodipodi="http://sodipodi.sourceforge.net/DTD/sodipodi-0.dtd"
   xmlns:inkscape="http://www.inkscape.org/namespaces/inkscape"
   width="210mm"
   height="297mm"
   viewBox="0 0 744.09448819 1052.3622047"
   id="svg4241"
   version="1.1"
   inkscape:version="0.91 r13725"
   sodipodi:docname="scratch.svg">
  <defs
     id="defs4243">
    <inkscape:path-effect
       effect="spiro"
       id="path-effect6034"
       is_visible="true" />
  </defs>
  <sodipodi:namedview
     id="base"
     pagecolor="#ffffff"
     bordercolor="#666666"
     borderopacity="1.0"
     inkscape:pageopacity="0.0"
     inkscape:pageshadow="2"
     inkscape:zoom="2.4416386"
     inkscape:cx="348.37644"
     inkscape:cy="299.39678"
     inkscape:document-units="px"
     inkscape:current-layer="layer1"
     showgrid="false"
     inkscape:window-width="1366"
     inkscape:window-height="706"
     inkscape:window-x="-8"
     inkscape:window-y="-8"
     inkscape:window-maximized="1" />
  <metadata
     id="metadata4246">
    <rdf:RDF>
      <cc:Work
         rdf:about="">
        <dc:format>image/svg+xml</dc:format>
        <dc:type
           rdf:resource="http://purl.org/dc/dcmitype/StillImage" />
        <dc:title></dc:title>
      </cc:Work>
    </rdf:RDF>
  </metadata>
  <g
     inkscape:label="Layer 1"
     inkscape:groupmode="layer"
     id="layer1">
    <text
       style="font-variant:normal;font-weight:normal;font-stretch:normal;font-size:49.94999695px;font-family:FontAwesome;-inkscape-font-specification:FontAwesome;writing-mode:lr-tb;fill:#303030;fill-opacity:1;fill-rule:nonzero;stroke:none"
       id="text4873-8"
       x="194.69107"
       y="497.81601"
       inkscape:export-xdpi="600"
       inkscape:export-ydpi="600">
      <tspan
         x="194.69107"
         y="497.81601"
         id="tspan4875-5"></tspan>
    </text>
    <text
       style="font-variant:normal;font-weight:normal;font-stretch:normal;font-size:49.94999695px;font-family:FontAwesome;-inkscape-font-specification:FontAwesome;writing-mode:lr-tb;fill:#303030;fill-opacity:1;fill-rule:nonzero;stroke:none"
       id="text4877"
       x="244.83456"
       y="497.81601"
       inkscape:export-xdpi="600"
       inkscape:export-ydpi="600">
      <tspan
         x="244.83456"
         y="497.81601"
         id="tspan4879"></tspan>
    </text>
    <text
       style="font-variant:normal;font-weight:normal;font-stretch:normal;font-size:49.94999695px;font-family:FontAwesome;-inkscape-font-specification:FontAwesome;writing-mode:lr-tb;fill:#303030;fill-opacity:1;fill-rule:nonzero;stroke:none"
       id="text4881"
       x="293.92917"
       y="497.81601"
       inkscape:export-xdpi="600"
       inkscape:export-ydpi="600">
      <tspan
         x="293.92917"
         y="497.81601"
         id="tspan4883"></tspan>
    </text>
    <text
       xml:space="preserve"
       style="font-style:normal;font-weight:normal;font-size:32.38160706px;line-height:100%;font-family:sans-serif;letter-spacing:0px;word-spacing:0px;fill:#000000;fill-opacity:1;stroke:none;stroke-width:1px;stroke-linecap:butt;stroke-linejoin:miter;stroke-opacity:1"
       x="492.92087"
       y="441.40417"
       id="text5467-8-6-4"
       sodipodi:linespacing="100%"
       inkscape:export-xdpi="600"
       inkscape:export-ydpi="600"><tspan
         sodipodi:role="line"
         x="492.92087"
         y="441.40417"
         style="font-style:normal;font-variant:normal;font-weight:normal;font-stretch:normal;font-size:16.19080353px;line-height:100%;font-family:'Gill Sans MT';-inkscape-font-specification:'Gill Sans MT'"
         id="tspan5489-9-2">data</tspan></text>
    <text
       xml:space="preserve"
       style="font-style:normal;font-weight:normal;font-size:32.38160706px;line-height:100%;font-family:sans-serif;letter-spacing:0px;word-spacing:0px;fill:#000000;fill-opacity:1;stroke:none;stroke-width:1px;stroke-linecap:butt;stroke-linejoin:miter;stroke-opacity:1"
       x="611.89752"
       y="441.40417"
       id="text5467-8-6-6"
       sodipodi:linespacing="100%"
       inkscape:export-xdpi="600"
       inkscape:export-ydpi="600"><tspan
         sodipodi:role="line"
         x="611.89752"
         y="441.40417"
         style="font-style:normal;font-variant:normal;font-weight:normal;font-stretch:normal;font-size:16.19080353px;line-height:100%;font-family:'Gill Sans MT';-inkscape-font-specification:'Gill Sans MT'"
         id="tspan5489-9-3">code</tspan></text>
    <text
       style="font-variant:normal;font-weight:normal;font-stretch:normal;font-size:49.94999695px;font-family:FontAwesome;-inkscape-font-specification:FontAwesome;writing-mode:lr-tb;fill:#303030;fill-opacity:1;fill-rule:nonzero;stroke:none"
       id="text4873-8-4"
       x="454.87195"
       y="391.77927"
       inkscape:export-xdpi="600"
       inkscape:export-ydpi="600">
      <tspan
         x="454.87195"
         y="391.77927"
         id="tspan4875-5-5"></tspan>
    </text>
    <text
       style="font-variant:normal;font-weight:normal;font-stretch:normal;font-size:49.94999695px;font-family:FontAwesome;-inkscape-font-specification:FontAwesome;writing-mode:lr-tb;fill:#303030;fill-opacity:1;fill-rule:nonzero;stroke:none"
       id="text4877-0"
       x="465.8819"
       y="500.38138"
       inkscape:export-xdpi="600"
       inkscape:export-ydpi="600">
      <tspan
         x="465.8819"
         y="500.38138"
         id="tspan4879-4"></tspan>
    </text>
    <text
       style="font-variant:normal;font-weight:normal;font-stretch:normal;font-size:49.94999695px;font-family:FontAwesome;-inkscape-font-specification:FontAwesome;writing-mode:lr-tb;fill:#303030;fill-opacity:1;fill-rule:nonzero;stroke:none"
       id="text4881-4"
       x="590.87701"
       y="500.38138"
       inkscape:export-xdpi="600"
       inkscape:export-ydpi="600">
      <tspan
         x="590.87701"
         y="500.38138"
         id="tspan4883-2"></tspan>
    </text>
    <text
       style="font-variant:normal;font-weight:normal;font-stretch:normal;font-size:49.94999695px;font-family:FontAwesome;-inkscape-font-specification:FontAwesome;writing-mode:lr-tb;fill:#303030;fill-opacity:1;fill-rule:nonzero;stroke:none"
       id="text4873-8-1"
       x="209.97906"
       y="312.60373"
       inkscape:export-xdpi="600"
       inkscape:export-ydpi="600">
      <tspan
         x="209.97906"
         y="312.60373"
         id="tspan4875-5-56"></tspan>
    </text>
    <text
       style="font-variant:normal;font-weight:normal;font-stretch:normal;font-size:49.94999695px;font-family:FontAwesome;-inkscape-font-specification:FontAwesome;writing-mode:lr-tb;fill:#303030;fill-opacity:1;fill-rule:nonzero;stroke:none"
       id="text4877-5"
       x="260.12256"
       y="312.60373"
       inkscape:export-xdpi="600"
       inkscape:export-ydpi="600">
      <tspan
         x="260.12256"
         y="312.60373"
         id="tspan4879-5"></tspan>
    </text>
    <path
       sodipodi:nodetypes="accaccaccaccaccacca"
       inkscape:connector-curvature="0"
       id="path6037-7-4-3"
       d="m 179.2966,219.42844 c -2.3169,2.16097 -4.70775,8.25693 -4.70775,8.25693 l 0,116.41804 c 0,0 -0.67988,9.41432 2.19989,12.52468 2.34168,2.52923 10.01681,2.56655 10.01681,2.56655 l 138.69555,0 c 0,0 10.91734,0.44425 15.03255,-2.53722 2.95196,-2.13867 5.08908,-9.67949 5.08908,-9.67949 l 0.71864,-88.39147 c 0,0 -2.22031,-6.89831 -4.70778,-9.34218 -2.36136,-2.32001 -8.9462,-4.31178 -8.9462,-4.31178 l -80.48654,0 c 0,0 -4.95002,-1.06823 -6.46766,-2.87454 -1.27069,-1.51236 -1.43726,-5.74903 -1.43726,-5.74903 l 0,-9.3422 c 0,0 -0.81443,-6.18374 -2.88918,-8.21292 -2.51882,-2.46345 -10.04616,-3.28515 -10.04616,-3.28515 l -43.83641,0 c 0,0 -6.0018,1.88383 -8.22758,3.95978 z"
       style="font-style:normal;font-weight:normal;font-size:medium;line-height:125%;font-family:sans-serif;letter-spacing:0px;word-spacing:0px;opacity:1;fill:none;fill-opacity:1;stroke:#000000;stroke-width:5.7636385;stroke-linecap:round;stroke-linejoin:miter;stroke-miterlimit:4;stroke-dasharray:none;stroke-dashoffset:0;stroke-opacity:1" />
    <text
       xml:space="preserve"
       style="font-style:normal;font-weight:normal;font-size:32.38160706px;line-height:100%;font-family:sans-serif;letter-spacing:0px;word-spacing:0px;fill:#000000;fill-opacity:1;stroke:none;stroke-width:1px;stroke-linecap:butt;stroke-linejoin:miter;stroke-opacity:1"
       x="329.56131"
       y="741.71466"
       id="text5467-8-6-4-8"
       sodipodi:linespacing="100%"
       inkscape:export-xdpi="600"
       inkscape:export-ydpi="600"><tspan
         sodipodi:role="line"
         x="329.56131"
         y="741.71466"
         style="font-style:normal;font-variant:normal;font-weight:normal;font-stretch:normal;font-size:16.19080353px;line-height:100%;font-family:'Gill Sans MT';-inkscape-font-specification:'Gill Sans MT'"
         id="tspan5489-9-2-8">data</tspan></text>
    <text
       style="font-variant:normal;font-weight:normal;font-stretch:normal;font-size:49.94999695px;font-family:FontAwesome;-inkscape-font-specification:FontAwesome;writing-mode:lr-tb;fill:#303030;fill-opacity:1;fill-rule:nonzero;stroke:none"
       id="text4873-8-4-4"
       x="270.69992"
       y="791.29822"
       inkscape:export-xdpi="600"
       inkscape:export-ydpi="600">
      <tspan
         x="270.69992"
         y="791.29822"
         id="tspan4875-5-5-2"></tspan>
    </text>
    <text
       style="font-variant:normal;font-weight:normal;font-stretch:normal;font-size:49.94999695px;font-family:FontAwesome;-inkscape-font-specification:FontAwesome;writing-mode:lr-tb;fill:#303030;fill-opacity:1;fill-rule:nonzero;stroke:none"
       id="text4877-0-0"
       x="350.065"
       y="791.29822"
       inkscape:export-xdpi="600"
       inkscape:export-ydpi="600">
      <tspan
         x="350.065"
         y="791.29822"
         id="tspan4879-4-1"></tspan>
    </text>
    <path
       sodipodi:nodetypes="zcczcczcczccscczccz"
       inkscape:connector-curvature="0"
       id="path6037-7-4-4"
       d="m -174.96333,473.91538 c -4.65594,3.99556 -4.70775,8.25693 -4.70775,8.25693 l 0,116.41805 c 0,0 -0.5833,9.18749 2.19989,12.52468 2.78319,3.33719 10.0168,2.56655 10.0168,2.56655 l 138.695553,0 c 0,0 10.11709,0.88687 15.03255,-2.53722 4.9154599,-3.42409 5.0890799,-9.67949 5.0890799,-9.67949 l 0.71864,-88.39148 c 0,0 -0.0413,-5.06314 -4.7077799,-9.34218 -4.66644,-4.27904 -8.9462,-4.31178 -8.9462,-4.31178 l -80.486543,0 c 0,0 -3.86624,0.16451 -6.46766,-2.87454 -1.40936,-1.64646 -1.43726,-5.74903 -1.43726,-5.74903 l 0,-9.3422 c 0,0 0.44239,-4.93182 -2.88918,-8.21292 -3.33157,-3.2811 -10.04616,-3.28515 -10.04616,-3.28515 l -43.83641,0 c 0,0 -3.57164,-0.0358 -8.22757,3.95978 z"
       style="font-style:normal;font-weight:normal;font-size:medium;line-height:125%;font-family:sans-serif;letter-spacing:0px;word-spacing:0px;opacity:1;fill:none;fill-opacity:1;stroke:#000000;stroke-width:5.7636385;stroke-linecap:round;stroke-linejoin:miter;stroke-miterlimit:4;stroke-dasharray:none;stroke-dashoffset:0;stroke-opacity:1" />
    <path
       sodipodi:nodetypes="zcczcczcczccscczccz"
       inkscape:connector-curvature="0"
       id="path6037-7-4-4-4"
       d="m 265.16373,686.39051 c -4.65594,3.99556 -4.70775,8.25693 -4.70775,8.25693 l 0,116.41806 c 0,0 -0.5833,9.18749 2.19989,12.52468 2.78319,3.33719 10.0168,2.56655 10.0168,2.56655 l 138.69556,0 c 0,0 10.11709,0.88687 15.03255,-2.53722 4.91546,-3.42409 5.08908,-9.67949 5.08908,-9.67949 l 0.71864,-88.39149 c 0,0 -0.0413,-5.06314 -4.70778,-9.34218 -4.66644,-4.27904 -8.9462,-4.31178 -8.9462,-4.31178 l -80.48655,0 c 0,0 -3.86624,0.16451 -6.46766,-2.87454 -1.40936,-1.64646 -1.43726,-5.74903 -1.43726,-5.74903 l 0,-9.3422 c 0,0 0.44239,-4.93182 -2.88918,-8.21292 -3.33157,-3.2811 -10.04616,-3.28515 -10.04616,-3.28515 l -43.83641,0 c 0,0 -3.57164,-0.0358 -8.22757,3.95978 z"
       style="font-style:normal;font-weight:normal;font-size:medium;line-height:125%;font-family:sans-serif;letter-spacing:0px;word-spacing:0px;opacity:1;fill:none;fill-opacity:1;stroke:#333333;stroke-width:5.7636385;stroke-linecap:round;stroke-linejoin:miter;stroke-miterlimit:4;stroke-dasharray:none;stroke-dashoffset:0;stroke-opacity:1" />
    <path
       sodipodi:nodetypes="zcczcczcczccscczccz"
       inkscape:connector-curvature="0"
       id="path6037-7-4-4-0"
       d="m 326.56678,730.02756 c -2.55767,2.19491 -2.58613,4.53583 -2.58613,4.53583 l 0,63.95262 c 0,0 -0.32043,5.04702 1.20847,6.88025 1.52891,1.83324 5.50259,1.4099 5.50259,1.4099 l 76.19046,0 c 0,0 5.55768,0.48719 8.25792,-1.39378 2.70024,-1.88098 2.79561,-5.3173 2.79561,-5.3173 l 0.39478,-48.55661 c 0,0 -0.0227,-2.78137 -2.58616,-5.132 -2.56344,-2.35063 -4.91447,-2.36861 -4.91447,-2.36861 l -44.21415,0 c 0,0 -2.12386,0.0904 -3.55292,-1.57909 -0.77421,-0.90446 -0.78954,-3.15815 -0.78954,-3.15815 l 0,-5.132 c 0,0 0.24302,-2.70923 -1.58713,-4.51166 -1.83015,-1.80242 -5.51871,-1.80465 -5.51871,-1.80465 l -24.08092,0 c 0,0 -1.96203,-0.0197 -4.5197,2.17525 z"
       style="font-style:normal;font-weight:normal;font-size:medium;line-height:125%;font-family:sans-serif;letter-spacing:0px;word-spacing:0px;opacity:1;fill:none;fill-opacity:1;stroke:#333333;stroke-width:3.1661737;stroke-linecap:round;stroke-linejoin:miter;stroke-miterlimit:4;stroke-dasharray:none;stroke-dashoffset:0;stroke-opacity:1" />
  </g>
</svg>
